M48
; DRILL file {KiCad 5.1.6} date Mon Oct  5 22:52:14 2020
; FORMAT={-:-/ absolute / inch / decimal}
; #@! TF.CreationDate,2020-10-05T22:52:14-04:00
; #@! TF.GenerationSoftware,Kicad,Pcbnew,5.1.6
; #@! TF.FileFunction,Plated,1,2,PTH
FMAT,2
INCH
T1C0.0157
T2C0.0197
T3C0.0217
T4C0.0394
T5C0.0400
T6C0.0472
T7C0.0512
T8C0.0591
%
G90
G05
T1
X3.375Y-4.575
X3.387Y-4.7665
X3.4Y-4.65
X3.4122Y-4.4122
X3.425Y-4.5
X3.425Y-4.55
X3.4295Y-4.6295
X3.4295Y-4.6705
X3.625Y-3.025
X3.65Y-3.56
X3.66Y-4.11
X3.7Y-5.0
X3.975Y-4.5
X3.975Y-4.55
X3.975Y-4.6
X3.975Y-4.65
X3.975Y-4.7
X3.9878Y-4.4122
X4.01Y-4.22
X4.02Y-4.27
X4.06Y-3.1
X4.1Y-4.45
X4.125Y-4.55
X4.125Y-4.7
X4.125Y-5.05
X4.2Y-2.45
X4.2045Y-4.6705
X4.225Y-4.7
X4.2455Y-4.6705
X4.25Y-3.45
X4.325Y-3.175
X4.33Y-3.9
X4.337Y-4.7665
X4.3518Y-3.9328
X4.3622Y-4.4122
X4.375Y-4.5
X4.375Y-4.55
X4.375Y-4.6
X4.45Y-3.125
X4.45Y-4.125
X4.475Y-4.2285
X4.5Y-3.475
X4.5191Y-3.1535
X4.5514Y-3.176
X4.575Y-3.425
X4.6Y-3.375
X4.65Y-2.3
X4.65Y-2.45
X4.65Y-5.0
X4.66Y-3.07
X4.675Y-2.275
X4.7Y-2.3
X4.7Y-3.175
X4.71Y-2.98
X4.72Y-2.83
X4.7472Y-4.1278
X4.775Y-3.8
X4.7778Y-4.0972
X4.8Y-2.825
X4.8Y-3.1
X4.8Y-3.925
X4.8173Y-4.0673
X4.835Y-4.21
X4.85Y-3.125
X4.85Y-3.775
X4.85Y-3.925
X4.9Y-3.925
X4.925Y-4.05
X4.925Y-4.5
X4.925Y-4.55
X4.925Y-4.6
X4.925Y-4.65
X4.925Y-4.7
X4.9378Y-4.4122
X4.95Y-3.925
X4.9535Y-3.175
X4.9657Y-3.7407
X5.0041Y-3.7965
X5.02Y-4.34
X5.02Y-4.55
X5.025Y-3.6
X5.025Y-3.75
X5.05Y-3.15
X5.05Y-4.025
X5.075Y-3.775
X5.075Y-4.7
X5.075Y-5.05
X5.0782Y-3.7218
X5.1Y-2.925
X5.1Y-2.975
X5.1545Y-4.6705
X5.175Y-4.075
X5.175Y-4.7
X5.185Y-4.175
X5.19Y-4.22
X5.1955Y-4.6705
X5.2215Y-3.7
X5.2215Y-3.775
X5.2785Y-3.8465
X5.287Y-4.7665
X5.3122Y-4.4122
X5.325Y-4.5
X5.325Y-4.55
X5.325Y-4.6
X5.375Y-3.425
X5.425Y-3.8
X5.45Y-3.075
X5.45Y-3.7
X5.45Y-4.0
X5.5Y-3.6715
X5.525Y-2.5
X5.525Y-2.575
X5.6Y-5.0
X5.875Y-4.5
X5.875Y-4.55
X5.875Y-4.6
X5.875Y-4.65
X5.875Y-4.7
X5.8878Y-4.4122
X5.8925Y-2.4675
X5.925Y-2.1
X5.9612Y-4.5445
X5.975Y-4.7
X6.025Y-5.05
X6.03Y-4.12
X6.03Y-4.31
X6.03Y-4.43
X6.03Y-4.54
X6.05Y-2.1
X6.1Y-4.065
X6.1045Y-4.6705
X6.125Y-4.04
X6.125Y-4.09
X6.125Y-4.7
X6.1455Y-4.6705
X6.15Y-4.065
X6.175Y-2.1
X6.237Y-4.762
X6.2622Y-4.4122
X6.275Y-4.5
X6.275Y-4.55
X6.275Y-4.6
X6.3Y-2.1
X6.35Y-4.2921
X6.55Y-5.0
X6.6669Y-2.7831
X6.7Y-4.2921
X6.7339Y-3.0661
X6.7339Y-3.1661
X6.7339Y-3.2589
X6.75Y-3.825
X6.7575Y-3.7175
X6.825Y-2.5
X6.825Y-2.6
X6.825Y-2.675
X6.825Y-2.75
X6.825Y-2.825
X6.825Y-4.5
X6.825Y-4.55
X6.825Y-4.6
X6.825Y-4.65
X6.825Y-4.7
X6.8378Y-4.4122
X6.875Y-4.3
X6.8759Y-4.2567
X6.925Y-4.525
X6.925Y-4.7
X6.95Y-2.8
X6.95Y-3.9
X6.975Y-5.05
X7.025Y-4.425
X7.0545Y-4.6705
X7.075Y-4.7
X7.0955Y-4.6705
X7.15Y-2.725
X7.15Y-3.825
X7.187Y-4.7665
X7.2Y-2.625
X7.2Y-3.725
X7.2122Y-4.4122
X7.225Y-4.5
X7.225Y-4.55
X7.225Y-4.6
X7.5Y-5.0
X7.775Y-4.5
X7.775Y-4.55
X7.775Y-4.6
X7.775Y-4.65
X7.775Y-4.7
X7.7878Y-4.4122
X7.875Y-4.45
X7.875Y-4.7
X7.925Y-5.05
X7.975Y-4.55
X8.4027Y-4.8223
X8.425Y-5.05
T5
X4.2Y-2.675
X4.3Y-2.675
X4.4Y-2.675
X4.5Y-2.675
X7.45Y-5.2
X7.55Y-5.2
X3.5Y-2.7
X3.5Y-2.8
X3.5Y-2.9
X3.8Y-3.25
X3.8Y-3.35
X3.8Y-3.45
X7.85Y-5.2
X7.95Y-5.2
X6.5Y-5.2
X6.6Y-5.2
X4.6Y-5.2
X4.7Y-5.2
X5.0Y-5.2
X5.1Y-5.2
X3.75Y-2.45
X3.85Y-2.45
X3.8Y-3.8
X3.8Y-3.9
X3.8Y-4.0
X3.5Y-3.25
X3.5Y-3.35
X3.5Y-3.45
X4.2Y-2.925
X4.2Y-3.025
X4.3Y-2.925
X4.3Y-3.025
X4.4Y-2.925
X4.4Y-3.025
X4.5Y-2.925
X4.5Y-3.025
X5.95Y-5.2
X6.05Y-5.2
X5.55Y-5.2
X5.65Y-5.2
X8.35Y-5.2
X8.45Y-5.2
X3.8Y-2.7
X3.8Y-2.8
X3.8Y-2.9
X4.05Y-5.2
X4.15Y-5.2
X3.65Y-5.2
X3.75Y-5.2
X3.5Y-3.8
X3.5Y-3.9
X3.5Y-4.0
X6.9Y-5.2
X7.0Y-5.2
X3.5Y-2.45
T6
X8.575Y-2.4872
X8.575Y-2.625
X5.6665Y-3.3
X6.2295Y-3.3
X8.575Y-3.5872
X8.575Y-3.725
T7
X7.5Y-4.0
X7.8Y-3.3
X7.8Y-3.6
X7.8Y-4.0
X7.5Y-2.9
X7.8Y-2.2
X7.8Y-2.5
X7.8Y-2.9
T8
X8.15Y-2.1169
X8.15Y-2.9831
X8.15Y-3.2169
X8.15Y-4.0831
T2
G00X4.6122Y-2.0674
M15
G01X4.6122Y-2.093
M16
G05
G00X4.8878Y-2.0674
M15
G01X4.8878Y-2.093
M16
G05
T3
G00X4.6575Y-2.1865
M15
G01X4.6457Y-2.1865
M16
G05
G00X4.8544Y-2.1865
M15
G01X4.8426Y-2.1865
M16
G05
T4
G00X5.015Y-2.3617
M15
G01X5.015Y-2.4404
M16
G05
G00X5.2393Y-2.2829
M15
G01X5.1606Y-2.2829
M16
G05
G00X5.2393Y-2.5191
M15
G01X5.1606Y-2.5191
M16
G05
T0
M30
