%TF.GenerationSoftware,KiCad,Pcbnew,5.1.6*%
%TF.CreationDate,2020-10-05T22:52:03-04:00*%
%TF.ProjectId,flowerpower,666c6f77-6572-4706-9f77-65722e6b6963,rev?*%
%TF.SameCoordinates,Original*%
%TF.FileFunction,Soldermask,Bot*%
%TF.FilePolarity,Negative*%
%FSLAX46Y46*%
G04 Gerber Fmt 4.6, Leading zero omitted, Abs format (unit mm)*
G04 Created by KiCad (PCBNEW 5.1.6) date 2020-10-05 22:52:03*
%MOMM*%
%LPD*%
G01*
G04 APERTURE LIST*
%ADD10O,1.827200X1.827200*%
%ADD11R,1.827200X1.827200*%
%ADD12R,2.500000X2.500000*%
%ADD13C,2.500000*%
%ADD14C,7.700000*%
%ADD15O,1.827200X2.132000*%
%ADD16R,1.827200X2.132000*%
%ADD17R,2.335200X2.335200*%
%ADD18C,2.400000*%
%ADD19R,2.400000X2.400000*%
%ADD20O,2.132000X2.132000*%
%ADD21R,2.132000X2.132000*%
%ADD22O,2.132000X1.827200*%
%ADD23R,2.132000X1.827200*%
%ADD24O,1.100000X1.650000*%
%ADD25O,1.350000X1.050000*%
%ADD26R,3.600120X3.600120*%
%ADD27O,2.599360X4.100500*%
G04 APERTURE END LIST*
D10*
%TO.C,J3*%
X106680000Y-74295000D03*
X106680000Y-76835000D03*
X109220000Y-74295000D03*
X109220000Y-76835000D03*
X111760000Y-74295000D03*
X111760000Y-76835000D03*
X114300000Y-74295000D03*
D11*
X114300000Y-76835000D03*
%TD*%
D12*
%TO.C,J16*%
X217805000Y-94615000D03*
D13*
X217805000Y-91115000D03*
%TD*%
D12*
%TO.C,J15*%
X217805000Y-66675000D03*
D13*
X217805000Y-63175000D03*
%TD*%
D14*
%TO.C,REF\u002A\u002A*%
X86995000Y-54610000D03*
%TD*%
D15*
%TO.C,J6*%
X114300000Y-67945000D03*
X111760000Y-67945000D03*
X109220000Y-67945000D03*
D16*
X106680000Y-67945000D03*
%TD*%
D14*
%TO.C,REF\u002A\u002A*%
X179705000Y-54610000D03*
%TD*%
%TO.C,REF\u002A\u002A*%
X220345000Y-109220000D03*
%TD*%
%TO.C,REF\u002A\u002A*%
X220345000Y-78740000D03*
%TD*%
%TO.C,REF\u002A\u002A*%
X183515000Y-134620000D03*
%TD*%
%TO.C,REF\u002A\u002A*%
X220345000Y-134620000D03*
%TD*%
%TO.C,REF\u002A\u002A*%
X135255000Y-134620000D03*
%TD*%
%TO.C,REF\u002A\u002A*%
X86995000Y-134620000D03*
%TD*%
%TO.C,REF\u002A\u002A*%
X141605000Y-54610000D03*
%TD*%
%TO.C,REF\u002A\u002A*%
X220345000Y-54610000D03*
%TD*%
D17*
%TO.C,TP1*%
X88900000Y-62230000D03*
%TD*%
D18*
%TO.C,L1*%
X143930000Y-83820000D03*
X158230000Y-83820000D03*
%TD*%
D19*
%TO.C,K2*%
X198120000Y-101600000D03*
D18*
X198120000Y-91440000D03*
X198120000Y-83820000D03*
X190500000Y-101600000D03*
%TD*%
D19*
%TO.C,K1*%
X198120000Y-73660000D03*
D18*
X198120000Y-63500000D03*
X198120000Y-55880000D03*
X190500000Y-73660000D03*
%TD*%
D20*
%TO.C,J24*%
X191770000Y-132080000D03*
D21*
X189230000Y-132080000D03*
%TD*%
D20*
%TO.C,J23*%
X201930000Y-132080000D03*
D21*
X199390000Y-132080000D03*
%TD*%
D20*
%TO.C,J22*%
X167640000Y-132080000D03*
D21*
X165100000Y-132080000D03*
%TD*%
D20*
%TO.C,J21*%
X177800000Y-132080000D03*
D21*
X175260000Y-132080000D03*
%TD*%
D20*
%TO.C,J20*%
X143510000Y-132080000D03*
D21*
X140970000Y-132080000D03*
%TD*%
D20*
%TO.C,J19*%
X153670000Y-132080000D03*
D21*
X151130000Y-132080000D03*
%TD*%
D20*
%TO.C,J18*%
X119380000Y-132080000D03*
D21*
X116840000Y-132080000D03*
%TD*%
D20*
%TO.C,J17*%
X129540000Y-132080000D03*
D21*
X127000000Y-132080000D03*
%TD*%
D22*
%TO.C,J14*%
X88900000Y-96520000D03*
X88900000Y-99060000D03*
D23*
X88900000Y-101600000D03*
%TD*%
D22*
%TO.C,J13*%
X96520000Y-96520000D03*
X96520000Y-99060000D03*
D23*
X96520000Y-101600000D03*
%TD*%
D22*
%TO.C,J12*%
X88900000Y-82550000D03*
X88900000Y-85090000D03*
D23*
X88900000Y-87630000D03*
%TD*%
D22*
%TO.C,J11*%
X96520000Y-82550000D03*
X96520000Y-85090000D03*
D23*
X96520000Y-87630000D03*
%TD*%
D22*
%TO.C,J10*%
X88900000Y-68580000D03*
X88900000Y-71120000D03*
D23*
X88900000Y-73660000D03*
%TD*%
D22*
%TO.C,J9*%
X96520000Y-68580000D03*
X96520000Y-71120000D03*
D23*
X96520000Y-73660000D03*
%TD*%
D20*
%TO.C,J8*%
X95250000Y-132080000D03*
D21*
X92710000Y-132080000D03*
%TD*%
D20*
%TO.C,J7*%
X105410000Y-132080000D03*
D21*
X102870000Y-132080000D03*
%TD*%
D20*
%TO.C,J5*%
X214630000Y-132080000D03*
D21*
X212090000Y-132080000D03*
%TD*%
D24*
%TO.C,J4*%
X117150900Y-52837540D03*
X124150900Y-52837540D03*
D25*
X118150900Y-55537540D03*
X123150900Y-55537540D03*
%TD*%
D20*
%TO.C,J2*%
X97790000Y-62230000D03*
D21*
X95250000Y-62230000D03*
%TD*%
D26*
%TO.C,J1*%
X132080000Y-63985140D03*
X132080000Y-57985660D03*
X127381000Y-60985400D03*
%TD*%
D27*
%TO.C,F2*%
X207010000Y-81709260D03*
X207010000Y-103710740D03*
%TD*%
%TO.C,F1*%
X207010000Y-53769260D03*
X207010000Y-75770740D03*
%TD*%
M02*
